<svg width="64" height="64" viewBox="0 0 64 64" fill="none" xmlns="http://www.w3.org/2000/svg">
<g id="&#240;&#159;&#166;&#134; icon &#34;calculator&#34;">
<path id="Vector" d="M2 56.5455V7.45455C2 4.44208 4.44208 2 7.45455 2H56.5455C59.558 2 62 4.44208 62 7.45455V56.5455C62 59.558 59.558 62 56.5455 62H7.45455C4.44208 62 2 59.558 2 56.5455Z" stroke="#B23C52" stroke-width="3"/>
<g id="Group 80">
<path id="Vector_2" d="M38.3477 20.4639H42.6H46.8524" stroke="#B23C52" stroke-width="3" stroke-linecap="round" stroke-linejoin="round"/>
<path id="Vector_3" d="M38.3477 39.2427H42.6H46.8524" stroke="#B23C52" stroke-width="3" stroke-linecap="round" stroke-linejoin="round"/>
<path id="Vector_4" d="M38.3477 45.8706H42.6H46.8524" stroke="#B23C52" stroke-width="3" stroke-linecap="round" stroke-linejoin="round"/>
<path id="Vector_5" d="M17.084 20.4638H21.3364M21.3364 20.4638H25.5888M21.3364 20.4638V16.0452M21.3364 20.4638V24.8823" stroke="#B23C52" stroke-width="3" stroke-linecap="round" stroke-linejoin="round"/>
<path id="Vector_6" d="M18.3301 45.681L21.337 42.5566M21.337 42.5566L24.3439 39.4323M21.337 42.5566L18.3301 39.4323M21.337 42.5566L24.3439 45.681" stroke="#B23C52" stroke-width="3" stroke-linecap="round" stroke-linejoin="round"/>
</g>
</g>
</svg>
