<svg width="34" height="34" viewBox="0 0 34 34" fill="none" xmlns="http://www.w3.org/2000/svg">
<path d="M10.25 32C14.8064 32 18.5 28.3064 18.5 23.75C18.5 19.1936 14.8064 15.5 10.25 15.5C5.69364 15.5 2 19.1936 2 23.75C2 25.2527 2.40174 26.6615 3.1037 27.875L2.4125 31.5875L6.125 30.8963C7.33847 31.5983 8.74731 32 10.25 32Z" stroke="#955743" stroke-width="3" stroke-linecap="round" stroke-linejoin="round"/>
<path d="M21.9233 25.8467C23.3878 25.6108 24.7634 25.1098 25.9997 24.3946L31.3997 25.4L30.3943 20C31.4153 18.235 31.9997 16.1857 31.9997 14C31.9997 7.37258 26.6272 2 19.9997 2C13.9587 2 8.96021 6.46397 8.12305 12.2733" stroke="#955743" stroke-width="3" stroke-linecap="round" stroke-linejoin="round"/>
</svg>
