<svg width="149" height="28" viewBox="0 0 149 28" fill="none" xmlns="http://www.w3.org/2000/svg">
<g id="Group 35">
<g id="Group 32">
<path id="Vector" d="M66.4865 3.5L59.6494 16.4254L52.8123 3.5H50.6543L58.6979 18.6182V27.5H60.5911V18.6182L68.6543 3.5H66.4865Z" fill="#D0B3B9"/>
<path id="Vector_2" d="M7.13826 0.5H0V27.5H2.15113V18.3792H6.21222C8.62379 18.3792 10.717 17.4975 12.4244 15.7634C14.1318 14.0294 15 11.8937 15 9.43469C15 6.97569 14.1318 4.85958 12.4244 3.12554C10.9968 1.67562 9.23151 0.793903 7.14791 0.509795L7.13826 0.5ZM12.8296 9.42489C12.8296 11.2765 12.1736 12.8832 10.881 14.1959C9.58842 15.5087 8.01608 16.1749 6.19293 16.1749H2.13183V2.69448H6.19293C8.00643 2.69448 9.58842 3.36067 10.881 4.66364C12.1736 5.96662 12.8296 7.57329 12.8296 9.42489Z" fill="#D0B3B9"/>
<path id="Vector_3" d="M38.6605 6.51348L40.2333 4.94077L39.5592 4.26675L37.9865 5.83946C35.6275 3.63358 32.7782 2.5 29.5 2.5C26.2218 2.5 23.3828 3.63358 21.0135 5.83946L19.4408 4.26675L18.7667 4.94077L20.3395 6.51348C18.1336 8.87255 17 11.7218 17 15C17 18.2782 18.1336 21.1172 20.3395 23.4865L18.7667 25.0592L19.4408 25.7332L21.0135 24.1605C23.3725 26.3664 26.2218 27.5 29.5 27.5C32.7782 27.5 35.6172 26.3664 37.9865 24.1605L39.5592 25.7332L40.2333 25.0592L38.6605 23.4865C40.8664 21.1172 42 18.2782 42 15C42 11.7218 40.8664 8.88276 38.6605 6.51348ZM28.826 15L25.7418 18.0842C25.0065 17.2059 24.6389 16.1846 24.6389 15C24.6389 13.8154 25.0065 12.7941 25.7418 11.9158L28.826 15ZM26.4158 11.2418C27.2941 10.5065 28.3154 10.1389 29.5 10.1389C30.6846 10.1389 31.7059 10.5065 32.5841 11.2418L29.5 14.326L26.4158 11.2418ZM29.5 15.674L32.5841 18.7582C31.7059 19.4935 30.6846 19.8611 29.5 19.8611C28.3154 19.8611 27.2941 19.4935 26.4158 18.7582L29.5 15.674ZM30.174 15L33.2582 11.9158C33.9935 12.7941 34.3611 13.8256 34.3611 15C34.3611 16.1744 33.9935 17.2059 33.2582 18.0842L30.174 15ZM33.3092 10.5167C32.2369 9.58742 30.9706 9.11765 29.5 9.11765C28.0294 9.11765 26.7733 9.58742 25.6908 10.527L22.4228 7.25899C24.3938 5.44118 26.7733 4.50164 29.4898 4.50164C32.2063 4.50164 34.5858 5.43097 36.5568 7.25899L33.2888 10.527L33.3092 10.5167ZM25.027 11.1908C24.0976 12.2631 23.6279 13.5396 23.6279 15C23.6279 16.4604 24.0976 17.7267 25.027 18.799L21.759 22.067C19.9412 20.0858 19.0118 17.7165 19.0118 14.9898C19.0118 12.2631 19.9412 9.89379 21.7692 7.91258L25.0372 11.1806L25.027 11.1908ZM25.701 19.473C26.7835 20.4024 28.0498 20.8824 29.5102 20.8824C30.9706 20.8824 32.2471 20.4126 33.3194 19.4833L36.5874 22.7512C34.6164 24.5792 32.2369 25.5188 29.5102 25.5188C26.7835 25.5188 24.4142 24.5792 22.433 22.7512L25.701 19.4833V19.473ZM33.9833 18.799C34.9126 17.7267 35.3824 16.4604 35.3824 15C35.3824 13.5396 34.9126 12.2631 33.9833 11.1908L37.2512 7.92279C39.069 9.89379 40.0086 12.2733 40.0086 14.9898C40.0086 17.7063 39.0793 20.0858 37.2614 22.067L33.9935 18.799H33.9833Z" fill="#D0B3B9"/>
<path id="Vector_4" d="M46.6882 3.5H44.7559V27.5H55.7559V25.5687H46.6882V3.5Z" fill="#D0B3B9"/>
<path id="Vector_5" d="M65.3867 27.5H67.7567L71.4967 17.8859H80.2867L84.0267 27.5H86.3867L75.8967 0.5L65.3867 27.5ZM79.4767 15.8003H72.3167L75.8967 6.58833L79.4767 15.8003Z" fill="#D0B3B9"/>
<path id="Vector_6" d="M102.094 11.433C102.094 9.25115 101.282 7.36091 99.6911 5.82258C98.3597 4.53561 96.7163 3.75136 94.7609 3.5H88.0938V27.4899H90.1012V19.3861H93.8872C93.9704 19.3861 94.0432 19.3861 94.1264 19.3861L99.5143 27.5H101.959L96.3003 19.0643C97.5588 18.6923 98.6926 18.0287 99.6911 17.0635C101.282 15.5151 102.094 13.6248 102.094 11.443V11.433ZM100.076 11.433C100.076 13.0819 99.4623 14.5096 98.2557 15.676C97.0492 16.8423 95.5826 17.4355 93.8872 17.4355H90.1012V5.45056H93.8872C95.5826 5.45056 97.0492 6.04378 98.2557 7.20004C99.4623 8.3563 100.076 9.78404 100.076 11.433Z" fill="#D0B3B9"/>
<path id="Vector_7" d="M102.307 3.5V5.44132H108.326V27.5H110.288V5.44132H116.307V3.5H102.307Z" fill="#D0B3B9"/>
</g>
<g id="Group 34">
<path id="Vector_8" d="M142.833 14.1034H128.166C127.846 14.1034 127.586 14.3871 127.586 14.7371V15.3319C127.586 15.6818 127.846 15.9655 128.166 15.9655H142.833C143.154 15.9655 143.414 15.6818 143.414 15.3319V14.7371C143.414 14.3871 143.154 14.1034 142.833 14.1034Z" fill="#D0B3B9"/>
<path id="Vector_9" d="M148.043 13.662H147.121V13.5702C147.121 12.7561 146.445 12.1025 145.628 12.1025H145.36V11.3686C145.36 10.4741 144.683 9.72878 143.784 9.49944V2H127.309V9.46504C126.352 9.65998 125.629 10.4283 125.629 11.3686V12.1025H125.349C124.52 12.1025 123.855 12.7675 123.855 13.5702V13.662H122.933C122.42 13.662 122 14.0748 122 14.5793V16.9645C122 17.469 122.42 17.8818 122.933 17.8818H123.855V18.5011C123.855 19.3152 124.532 19.9688 125.349 19.9688H125.629V24.2575C125.629 25.3354 126.586 26.2069 127.776 26.2069H143.224C144.403 26.2069 145.371 25.3354 145.371 24.2575V19.9688H145.651C146.48 19.9688 147.145 19.3037 147.145 18.5011V17.8818H148.067C148.58 17.8818 149 17.469 149 16.9645V14.5793C149 14.0748 148.58 13.662 148.067 13.662H148.043ZM144.368 11.3686V12.1025H143.773V10.52C144.123 10.692 144.368 11.0016 144.368 11.38V11.3686ZM142.816 2.9403V12.1025H128.242V2.9403H142.816ZM126.597 11.3686C126.597 10.9672 126.889 10.6117 127.297 10.4627V12.1025H126.597V11.3686ZM122.968 16.9301V14.6367H123.844V16.9301H122.968ZM144.368 24.269C144.368 24.8079 143.843 25.2551 143.201 25.2551H127.752C127.111 25.2551 126.586 24.8079 126.586 24.269V19.9803H127.286V22.6521H143.761V19.9803H144.356V24.269H144.368ZM128.254 19.9803H142.828V21.7118H128.254V19.9803ZM146.141 18.5125C146.141 18.7877 145.908 19.0171 145.628 19.0171H125.337C125.057 19.0171 124.824 18.7877 124.824 18.5125V13.5702C124.824 13.295 125.057 13.0657 125.337 13.0657H145.628C145.908 13.0657 146.141 13.295 146.141 13.5702V18.5125ZM147.997 16.9301H147.121V14.6367H147.997V16.9301Z" fill="#D0B3B9"/>
</g>
</g>
</svg>
