<svg width="260" height="65" viewBox="0 0 260 65" fill="none" xmlns="http://www.w3.org/2000/svg">
<path d="M16.6548 0H0V65H5.01895V43.0424H14.4942C20.1208 43.0424 25.0047 40.9198 28.9884 36.7453C32.972 32.5707 34.9976 27.4292 34.9976 21.5094C34.9976 15.5896 32.972 10.4953 28.9884 6.32076C25.6574 2.83019 21.5387 0.707543 16.6773 0.0235809L16.6548 0ZM29.9337 21.4858C29.9337 25.9434 28.4032 29.8113 25.3874 32.9717C22.3715 36.1321 18.7029 37.7358 14.4492 37.7358H4.97394V5.28301H14.4492C18.6804 5.28301 22.3715 6.88679 25.3874 10.0236C28.4032 13.1604 29.9337 17.0283 29.9337 21.4858Z" fill="#D0B3B9"/>
<path d="M87.7995 17.9902L91.3222 14.4673L89.8125 12.9575L86.2898 16.4804C81.0059 11.5392 74.624 9 67.2813 9C59.9387 9 53.5796 11.5392 48.2728 16.4804L44.7502 12.9575L43.2405 14.4673L46.7631 17.9902C41.8222 23.2745 39.2832 29.6569 39.2832 37C39.2832 44.3431 41.8222 50.7026 46.7631 56.0098L43.2405 59.5327L44.7502 61.0425L48.2728 57.5196C53.5567 62.4608 59.9387 65 67.2813 65C74.624 65 80.983 62.4608 86.2898 57.5196L89.8125 61.0425L91.3222 59.5327L87.7995 56.0098C92.7404 50.7026 95.2794 44.3431 95.2794 37C95.2794 29.6569 92.7404 23.2974 87.7995 17.9902ZM65.7716 37L58.8636 43.9085C57.2166 41.9412 56.3932 39.6536 56.3932 37C56.3932 34.3464 57.2166 32.0588 58.8636 30.0915L65.7716 37ZM60.3733 28.5817C62.3405 26.9346 64.6279 26.1111 67.2813 26.1111C69.9347 26.1111 72.2221 26.9346 74.1893 28.5817L67.2813 35.4902L60.3733 28.5817ZM67.2813 38.5098L74.1893 45.4183C72.2221 47.0653 69.9347 47.8889 67.2813 47.8889C64.6279 47.8889 62.3405 47.0653 60.3733 45.4183L67.2813 38.5098ZM68.791 37L75.699 30.0915C77.346 32.0588 78.1695 34.3693 78.1695 37C78.1695 39.6307 77.346 41.9412 75.699 43.9085L68.791 37ZM75.8134 26.9575C73.4116 24.8758 70.5752 23.8235 67.2813 23.8235C63.9874 23.8235 61.1739 24.8758 58.7492 26.9804L51.4294 19.6601C55.8442 15.5882 61.1739 13.4837 67.2584 13.4837C73.343 13.4837 78.6727 15.5654 83.0874 19.6601L75.7677 26.9804L75.8134 26.9575ZM57.2624 28.4673C55.1808 30.8693 54.1286 33.7288 54.1286 37C54.1286 40.2713 55.1808 43.1078 57.2624 45.5098L49.9426 52.8301C45.871 48.3922 43.7894 43.085 43.7894 36.9771C43.7894 30.8693 45.871 25.5621 49.9655 21.1242L57.2853 28.4444L57.2624 28.4673ZM58.7721 47.0196C61.1968 49.1013 64.0332 50.1765 67.3042 50.1765C70.5752 50.1765 73.4345 49.1242 75.8363 47.0425L83.1561 54.3627C78.7413 58.4575 73.4116 60.5621 67.3042 60.5621C61.1968 60.5621 55.8899 58.4575 51.4523 54.3627L58.7721 47.0425V47.0196ZM77.3231 45.5098C79.4047 43.1078 80.4569 40.2713 80.4569 37C80.4569 33.7288 79.4047 30.8693 77.3231 28.4673L84.6429 21.1471C88.7145 25.5621 90.8189 30.8922 90.8189 36.9771C90.8189 43.0621 88.7374 48.3922 84.6658 52.8301L77.346 45.5098H77.3231Z" fill="#D0B3B9"/>
<path d="M105.403 10H101.012V65H126.01V60.5742H105.403V10Z" fill="#D0B3B9"/>
<path d="M150.187 10L134.614 39.6207L119.042 10H114.127L132.447 44.6458V65H136.759V44.6458L155.124 10H150.187Z" fill="#D0B3B9"/>
<path d="M146.891 65H152.195L160.564 41.8549H180.236L188.606 65H193.887L170.411 0L146.891 65ZM178.423 36.8341H162.4L170.411 14.6571L178.423 36.8341Z" fill="#D0B3B9"/>
<path d="M227.391 28.1797C227.391 23.1797 225.652 18.8479 222.242 15.3226C219.39 12.3733 215.868 10.576 211.678 10H197.393V64.977H201.694V46.4055H209.806C209.985 46.4055 210.141 46.4055 210.319 46.4055L221.863 65H227.101L214.977 45.6682C217.674 44.8157 220.103 43.2949 222.242 41.0829C225.652 37.5346 227.391 33.2028 227.391 28.2028V28.1797ZM223.067 28.1797C223.067 31.9585 221.752 35.2304 219.167 37.9032C216.581 40.576 213.439 41.9355 209.806 41.9355H201.694V14.47H209.806C213.439 14.47 216.581 15.8295 219.167 18.4793C221.752 21.129 223.067 24.4009 223.067 28.1797Z" fill="#D0B3B9"/>
<path d="M229.002 10V14.4489H242.329V65H246.673V14.4489H260V10H229.002Z" fill="#D0B3B9"/>
</svg>
