<svg width="56" height="56" viewBox="0 0 56 56" fill="none" xmlns="http://www.w3.org/2000/svg">
<path id="Vector" d="M48.5163 8.9902L52.039 5.46733L50.5293 3.95752L47.0066 7.48039C41.7227 2.53922 35.3407 0 27.9981 0C20.6555 0 14.2964 2.53922 8.98959 7.48039L5.46695 3.95752L3.95725 5.46733L7.47989 8.9902C2.53905 14.2745 0 20.6569 0 28C0 35.3431 2.53905 41.7026 7.47989 47.0098L3.95725 50.5327L5.46695 52.0425L8.98959 48.5196C14.2735 53.4608 20.6555 56 27.9981 56C35.3407 56 41.6998 53.4608 47.0066 48.5196L50.5293 52.0425L52.039 50.5327L48.5163 47.0098C53.4572 41.7026 55.9962 35.3431 55.9962 28C55.9962 20.6569 53.4572 14.2974 48.5163 8.9902ZM26.4884 28L19.5804 34.9085C17.9334 32.9412 17.11 30.6536 17.11 28C17.11 25.3464 17.9334 23.0588 19.5804 21.0915L26.4884 28ZM21.0901 19.5817C23.0573 17.9346 25.3447 17.1111 27.9981 17.1111C30.6515 17.1111 32.9389 17.9346 34.9061 19.5817L27.9981 26.4902L21.0901 19.5817ZM27.9981 29.5098L34.9061 36.4183C32.9389 38.0653 30.6515 38.8889 27.9981 38.8889C25.3447 38.8889 23.0573 38.0653 21.0901 36.4183L27.9981 29.5098ZM29.5078 28L36.4158 21.0915C38.0628 23.0588 38.8863 25.3693 38.8863 28C38.8863 30.6307 38.0628 32.9412 36.4158 34.9085L29.5078 28ZM36.5302 17.9575C34.1284 15.8758 31.292 14.8235 27.9981 14.8235C24.7042 14.8235 21.8907 15.8758 19.466 17.9804L12.1462 10.6601C16.561 6.58824 21.8907 4.48367 27.9752 4.48367C34.0598 4.48367 39.3895 6.56537 43.8042 10.6601L36.4845 17.9804L36.5302 17.9575ZM17.9792 19.4673C15.8976 21.8693 14.8454 24.7288 14.8454 28C14.8454 31.2713 15.8976 34.1078 17.9792 36.5098L10.6594 43.8301C6.58779 39.3922 4.50623 34.085 4.50623 27.9771C4.50623 21.8693 6.58779 16.5621 10.6823 12.1242L18.0021 19.4444L17.9792 19.4673ZM19.4889 38.0196C21.9136 40.1013 24.75 41.1765 28.021 41.1765C31.292 41.1765 34.1513 40.1242 36.5531 38.0425L43.8729 45.3627C39.4581 49.4575 34.1284 51.5621 28.021 51.5621C21.9136 51.5621 16.6067 49.4575 12.1691 45.3627L19.4889 38.0425V38.0196ZM38.0399 36.5098C40.1215 34.1078 41.1737 31.2713 41.1737 28C41.1737 24.7288 40.1215 21.8693 38.0399 19.4673L45.3597 12.1471C49.4313 16.5621 51.5357 21.8922 51.5357 27.9771C51.5357 34.0621 49.4542 39.3922 45.3826 43.8301L38.0628 36.5098H38.0399Z" fill="#D0B3B9"/>
</svg>
